# xmcd CD database file
#
# Track frame offsets:
#	150
#	40208
#	53729
#	85114
#	113568
#	142548
#	175734
#
# Disc length: 2789 seconds
#
# Revision: 0
# Processed by: cddbd v1.5.2PL0 Copyright (c) Steve Scherf et al.
# Submitted via: CDex 1.70beta3
#
DISCID=480ae307
DTITLE=Kondo Toshinori - Tsunami Aquarium in Fukushima
DYEAR=2012
DGENRE=Jazz
TTITLE0=In the Water
TTITLE1=Floating Body
TTITLE2=Departed Soul
TTITLE3=Clear Sky
TTITLE4=The Black Current
TTITLE5=Cherry Pink and Apple Blossom White
TTITLE6=Cosmic Aqua
EXTD=YEAR: 2012
EXTT0=
EXTT1=
EXTT2=
EXTT3=
EXTT4=
EXTT5=
EXTT6=
PLAYORDER=
